<svg id="DOREMUS" xmlns="http://www.w3.org/2000/svg" viewBox="0 0 420.85 58.55"><defs><style>.cls-1{fill:#fff;}</style></defs><title>Doremus_Logo_White_RGB</title><path id="DOREMUS-2" data-name="DOREMUS" class="cls-1" d="M469.47,75.28l6.69-14.1a42.58,42.58,0,0,0-11.27-4.86,47.76,47.76,0,0,0-13-1.83,32.87,32.87,0,0,0-12.59,2.23,18.54,18.54,0,0,0-8.36,6.41A16.5,16.5,0,0,0,428,72.89q0,5.74,2.87,9.16a17.54,17.54,0,0,0,6.81,5.06,74.46,74.46,0,0,0,9.84,3.15,40.65,40.65,0,0,1,7.13,2.27q2.27,1.08,2.27,3a2.59,2.59,0,0,1-1.19,2.35,6.07,6.07,0,0,1-3.27.76A29.57,29.57,0,0,1,441.74,96a37.57,37.57,0,0,1-10.59-6.25l-6.85,13.94a42.66,42.66,0,0,0,13,6.65,48.42,48.42,0,0,0,14.94,2.43,33.74,33.74,0,0,0,11.87-2,18.59,18.59,0,0,0,8.48-6.1,16.19,16.19,0,0,0,3.15-10.16A14.64,14.64,0,0,0,472.81,85a17.82,17.82,0,0,0-6.89-5.3A83.71,83.71,0,0,0,456,76.4a44.61,44.61,0,0,1-7-2.31,3.22,3.22,0,0,1-2.19-2.95q0-2.47,3.43-2.47a28.49,28.49,0,0,1,9.08,2,61.38,61.38,0,0,1,10.12,4.62M386.3,88.59V55.93H367.82V88.59a24.61,24.61,0,0,0,3.31,12.86,22.21,22.21,0,0,0,9.32,8.56,30.52,30.52,0,0,0,13.9,3,29.78,29.78,0,0,0,13.78-3,21.86,21.86,0,0,0,9.12-8.56,25.08,25.08,0,0,0,3.23-12.86V55.93H402V88.59a9.74,9.74,0,0,1-2.15,6.57,6.84,6.84,0,0,1-5.42,2.51,7.59,7.59,0,0,1-5.74-2.55,9.17,9.17,0,0,1-2.39-6.53m-92.49,23.18H310V81.18l11.23,25.17h12l11.23-25.17v30.59h16.17V55.93h-19.6L327.27,85.08,313.41,55.93h-19.6Zm-55,0h48v-14H257.33V90.82h26.13v-14H257.33V69.95h28.76v-14H238.85ZM199.58,69.95h8.52a6.14,6.14,0,0,1,4.66,1.71,6.71,6.71,0,0,1,1.63,4.82,7.13,7.13,0,0,1-1.63,5,6,6,0,0,1-4.66,1.79h-8.52Zm34.49,41.82-11-18.16a17.35,17.35,0,0,0,6.57-7.13,23.15,23.15,0,0,0,2.27-10.55q0-9.56-6.21-14.78T208.1,55.93h-27v55.84h18.48V97.27h6.93l6.69,14.5ZM145.49,70.11a10.26,10.26,0,0,1,5.82,1.75,12,12,0,0,1,4.14,4.9,16.05,16.05,0,0,1,1.51,7,16.32,16.32,0,0,1-1.51,7.09,12.21,12.21,0,0,1-4.14,5,10.11,10.11,0,0,1-5.82,1.79,10.49,10.49,0,0,1-5.93-1.83,13.08,13.08,0,0,1-4.38-5,15.07,15.07,0,0,1-1.63-7,14.84,14.84,0,0,1,1.63-7,12.85,12.85,0,0,1,4.38-4.9,10.67,10.67,0,0,1,5.93-1.79m-.24-15.38a33.23,33.23,0,0,0-15.77,3.7,27.37,27.37,0,0,0-11,10.32,28.67,28.67,0,0,0-3.94,15,29.1,29.1,0,0,0,3.94,15.06,27.74,27.74,0,0,0,11,10.48,34.77,34.77,0,0,0,31.55,0,27.74,27.74,0,0,0,11-10.48,29.1,29.1,0,0,0,3.94-15.06A28.52,28.52,0,0,0,172,68.83a27.63,27.63,0,0,0-11-10.36,33,33,0,0,0-15.77-3.74M80.72,97.43H73.79V70.26h6.05A10.83,10.83,0,0,1,88.49,74q3.22,3.74,3.23,10t-3,9.8a9.8,9.8,0,0,1-8,3.66m-.48-41.51H55.31v55.84H79.53A36.65,36.65,0,0,0,95.9,108.3a25.57,25.57,0,0,0,10.87-9.76,27.82,27.82,0,0,0,3.82-14.74,28.34,28.34,0,0,0-3.74-14.7,25,25,0,0,0-10.59-9.76,35.38,35.38,0,0,0-16-3.43" transform="translate(-55.31 -54.49)"/></svg>